<svg xmlns="http://www.w3.org/2000/svg" width="346" height="163"><path fill="#afd036" d="M212.375 57.5c5.177 3.082 9.118 7.76 12 13 2.076 8.306 1.995 15.024-2.062 22.688-4.855 5.903-9.731 10.341-17.583 11.148-8.263.091-14.235-.18-20.437-5.914-5.886-6.36-7.951-12.739-7.703-21.356 1.004-7.509 4.71-13.137 10.469-17.91 7.225-4.303 17.575-5.073 25.316-1.656"/><path fill="#afcf35" d="M134 40h15q1.47 3.656 2.938 7.313l.841 2.091c4.995 12.456 5.29 27.58.487 40.256-1.549 2.862-2.916 5.062-5.266 7.34-3.234.488-3.234.488-6.75.313l-3.547-.137L135 97c-7.218-13.415-11.067-26.847-6.691-41.965 1.626-5.088 3.3-10.251 5.691-15.035"/><path fill="#b0d136" d="m236.688 123.688 2.357-.088c5.79-.063 10.127 1.143 14.955 4.4 3.794 4.085 4.82 8.036 5.164 13.469-.358 5.53-2.806 9.27-6.789 12.969-4.83 3.178-8.89 2.817-14.562 2.875l-2.83.087c-6.241.057-9.91-.698-14.983-4.4-3.971-4.99-4.638-9.077-4.387-15.414.747-4.993 3.322-7.625 6.95-10.899 4.487-3.106 8.856-2.936 14.125-3M226 136c-1.254 3.362-1.254 3.362-1 7 1.403 2.837 1.403 2.837 4 5 2.905.487 5.117.66 8 .563l2.156.033c3.461-.049 5.497-.34 8.309-2.412 2.27-3.23 2.153-5.34 1.535-9.184-2.678-2.756-4.334-3.895-8.156-4.496l-3.344.059-3.344.003c-3.479.478-5.396 1.283-8.156 3.434m-104.187-12.25 2.408-.062c5.748-.039 10.052.766 14.424 4.847 4.74 6.199 5.23 10.692 4.355 18.465-1.652 4.088-3.87 6.259-7.523 8.656-4.73 1.828-8.952 1.82-13.977 1.781l-2.8.061c-5.747-.004-9.183-.605-13.7-4.498-3.74-4.448-5.056-8.294-5-14 .758-6.169 3.453-8.804 8.027-12.617 4.307-3.02 8.749-2.6 13.785-2.633M110 137c-.492 4.888-.492 4.888 1.52 9.2 3.4 2.468 6.437 2.388 10.48 2.3l2.156.047c3.49-.026 5.49-.283 8.317-2.39 2.072-2.927 2.04-4.643 1.527-8.157-1.78-3.136-2.523-3.841-6-5a100 100 0 0 0-5.875-.25l-3.117-.078c-3.697.403-6.36 1.68-9.008 4.328m-86-13h9v12c3.353-.064 3.353-.064 7-1 2.332-2.485 2.332-2.485 4.188-5.562 3.909-5.236 3.909-5.236 8.054-6.165 2.99.036 5.81.233 8.758.727-1.672 3.96-4.363 7.016-7.125 10.25l-1.418 1.68Q50.733 137.969 49 140c1.449 4.563 3.854 7.302 7.125 10.75C61 155.894 61 155.894 61 157c-11.122 1.373-11.122 1.373-15.645-1.934C40 149.036 40 149.036 40 146h-7v11h-9z"/><path fill="#b0d136" d="M181 124h9v12c5.738-.732 7.65-2.556 11.188-7.125 2.67-3.215 3.914-4.693 8.054-5.531 2.98.028 5.814.208 8.758.656-3.61 5.964-8.28 10.896-13 16 1.665 3.951 4.358 6.975 7.125 10.188C217 155.875 217 155.875 217 157c-4.159.633-7.86.842-12 0-2.775-2.348-4.752-4.766-6.867-7.715-2.634-2.821-4.355-3.032-8.133-3.285v11h-9zm80 0h9l.148 3.035.227 4.028c.07 1.31.14 2.621.21 3.972.42 4.016 1.004 7.197 2.415 10.965 3.565 1.188 6.256 1.263 10 1 3.185-1.76 3.833-2.499 5-6a73 73 0 0 0 .316-4.012l.127-2.295.12-2.38.13-2.417q.158-2.947.307-5.896h9c.081 3.209.14 6.416.188 9.625l.076 2.738c.068 6.282-.532 10.735-5.018 15.5l-1.808 1.45c-.6.49-1.2.982-1.817 1.488-4.595 3.4-10.141 2.704-15.621 2.199-4.884-1.59-8.244-4.713-11-9-2.215-5.202-2.24-9.832-2.125-15.375l.027-2.52c.024-2.035.06-4.07.098-6.105m-173.375 1.063c4.315 2.477 8.415 5.839 9.942 10.766.459 2.3.546 4.374.53 6.718l-.01 2.558-.025 2.645-.013 2.691q-.02 3.28-.049 6.559h-9l-.148-3.578-.227-4.672c-.03-.777-.062-1.555-.094-2.355-.225-5.49-.225-5.49-2.531-10.395-2.543-1.907-3.856-2.006-7.062-1.875-2.91.638-2.91.638-4.579 2.352-2.05 3.804-1.93 7.512-2.046 11.773l-.104 2.547A625 625 0 0 0 72 157h-9a733 733 0 0 1-.25-10.062l-.102-2.858c-.087-6.29.604-9.972 4.352-15.08 6.62-5.133 12.647-6.276 20.625-3.937m74.825-1.161 2.568.01 2.67.025 2.705.014q3.303.02 6.607.049v9l-3.324.113q-2.183.099-4.363.2l-2.186.068c-4.421.222-7.596.678-11.127 3.619-.667 3.5-.667 3.5 0 7 1.55 2.063 2.455 2.882 4.993 3.432l2.237.08 2.432.107 2.525.069 2.561.103c2.084.082 4.168.147 6.252.209v9c-3.376.108-6.748.187-10.125.25l-2.883.102c-5.876.081-9.38-.317-13.992-4.352-3.74-4.448-5.056-8.294-5-14 .758-6.169 3.453-8.804 8.027-12.617 3.13-2.194 5.711-2.506 9.422-2.48M300 124h33v9h-12l.375 5.875c.07 1.09.14 2.181.21 3.305.148 2.95.148 2.95 2.415 4.82 2.203.46 2.203.46 4.625.625L333 148v9c-10.686.622-10.686.622-15.562-1.687-3.702-3.512-5.329-5.904-5.731-11.083q.03-2.022.106-4.042l.04-2.1c.036-1.696.09-3.392.147-5.088h-12zM177 15c1.938 1.063 1.938 1.063 3 3 .662 5.047.722 6.948-2.187 11.188a151 151 0 0 1-5.438 5.187c-4.198 4.64-5.294 10.27-6.812 16.188-1.234 4.71-2.931 8.353-5.563 12.437h-2l-1.023-3.324-1.352-4.364-.672-2.185c-.946-3.048-1.885-5.974-3.18-8.897-.905-2.61-.912-3.723.227-6.23 1.523-1.309 1.523-1.309 3.375-2.437 5.994-3.66 7.449-9.67 9.465-16.04 2.702-5.877 6.247-6.028 12.16-4.523M145 5c3.646 2.026 5.42 3.197 6.7 7.172.98 6.627-.415 12.595-2.7 18.828-1 1-1 1-4.16 1.098l-3.903-.035-3.91-.028L134 32c-2.7-7.553-4.963-15.288-1.75-23 3.698-4.226 7.212-4.668 12.75-4"/><path fill="#070a07" d="M155 70c.553 8.573-1.312 15.51-6.25 22.625-2.681 2.315-3.363 2.852-6.687 3.188-3.397-.282-5.055-1.28-7.375-3.75C130.47 86.385 128.455 80.08 129 73l3 1c5.725.477 8.45 0 13.191-3.11 3.23-1.59 6.279-1.138 9.809-.89"/><path fill="#b0d136" d="M157 80c4.032 1.58 6.492 4.468 9.375 7.563 10.137 10.481 23.551 19.573 38.465 20.64 8.486.129 15.943-1.133 24.16-3.203v2c-14.227 6.967-25.703 9.065-41 4-13.22-5.455-25.329-18.003-31-31m3.563-45.437A1056 1056 0 0 1 168 39c-1.428 8.814-2.847 16.484-8 24h-2l-1.023-3.324-1.352-4.364-.672-2.185c-.95-3.058-1.92-6.045-3.117-9.018C151 42 151 42 151 39.937c1.975-3.827 5.249-6.321 9.563-5.374"/><path fill="#fff" d="M135 33h13l1 6h-15z"/><path fill="#b0d136" d="M156 85c2.55 2.358 4.346 4.916 6.25 7.813 3.117 4.533 6.443 7.823 10.75 11.187l2 2c-5.459-.136-8.33-2.39-12.168-5.965C158.956 95.73 156.72 90.76 156 85"/><path fill="#9dba30" d="m128 72 2 1c.273 1.75.273 1.75.375 4 .516 5.764 2.305 11.225 6.059 15.715 2.313 1.898 4.653 1.961 7.566 2.285-3.166 1.876-5.358 2.097-9 2-3.842-7.032-7.49-13.863-8-22z"/><path fill="#a5c533" d="M155 71h1c.594 8.907-1.521 16.396-5.75 24.25-3.417 2.658-6.002 2.104-10.25 1.75l1.688-.75c5.97-3.227 9.105-6.904 11.312-13.25.863-3.979 1.488-7.962 2-12"/><path fill="#fff" d="M161 30c3.485.645 6.028 2.101 9 4l-1 4c-4.72 0-6.27-1.288-10-4z"/><path fill="#eff5d7" d="M180 81c1.56 2.341 2.583 4.28 3.688 6.813 2.717 5.506 6.723 8.975 12.25 11.562L198 100c-2.428.878-3.57 1.176-6 .18-6.236-4.068-10.098-7.732-12-15.18z"/><path fill="#1b220d" d="M204 67h4l-1 5-4-1z"/><path fill="#12170b" d="M208 75h4v4l-5-1z"/><path fill="#0a0e08" d="m213 68 5 1-1 3h-4z"/></svg>